<?xml version="1.0" encoding="UTF-8"?>
<svg width="2763px" height="449px" viewBox="0 0 2763 449" version="1.1" xmlns="http://www.w3.org/2000/svg" xmlns:xlink="http://www.w3.org/1999/xlink">
    <!-- Generator: Sketch 58 (84663) - https://sketch.com -->
    <title>logotype</title>
    <desc>Created with Sketch.</desc>
    <g id="Page-1" stroke="none" stroke-width="1" fill="none" fill-rule="evenodd">
        <g id="logotype" transform="translate(0.000000, -31.000000)" fill="#FFFFFF" fill-rule="nonzero">
            <path d="M778.4,249.2 C778.4,270.266772 774.766703,289.699911 767.5,307.5 C760.233297,325.300089 750.000066,340.699935 736.8,353.7 C723.599934,366.700065 707.700093,376.833297 689.1,384.1 C670.499907,391.366703 649.86678,395 627.2,395 L514,395 L514,103.6 L627.2,103.6 C649.86678,103.6 670.499907,107.26663 689.1,114.6 C707.700093,121.93337 723.599934,132.066602 736.8,145 C750.000066,157.933398 760.233297,173.299911 767.5,191.1 C774.766703,208.900089 778.4,228.266562 778.4,249.2 Z M709.2,249.2 C709.2,234.799928 707.333352,221.800058 703.6,210.2 C699.866648,198.599942 694.500035,188.766707 687.5,180.7 C680.499965,172.633293 671.933384,166.433355 661.8,162.1 C651.666616,157.766645 640.133398,155.6 627.2,155.6 L582,155.6 L582,343 L627.2,343 C640.133398,343 651.666616,340.833355 661.8,336.5 C671.933384,332.166645 680.499965,325.966707 687.5,317.9 C694.500035,309.833293 699.866648,300.000058 703.6,288.4 C707.333352,276.799942 709.2,263.733406 709.2,249.2 Z M887.2,184.4 C902.933412,184.4 917.266602,186.866642 930.2,191.8 C943.133398,196.733358 954.233287,203.799954 963.5,213 C972.766713,222.200046 979.966641,233.366601 985.1,246.5 C990.233359,259.633399 992.8,274.399918 992.8,290.8 C992.8,307.333416 990.233359,322.233267 985.1,335.5 C979.966641,348.766733 972.766713,360.033287 963.5,369.3 C954.233287,378.566713 943.133398,385.699975 930.2,390.7 C917.266602,395.700025 902.933412,398.2 887.2,398.2 C871.333254,398.2 856.900065,395.700025 843.9,390.7 C830.899935,385.699975 819.700047,378.566713 810.3,369.3 C800.899953,360.033287 793.633359,348.766733 788.5,335.5 C783.366641,322.233267 780.8,307.333416 780.8,290.8 C780.8,274.399918 783.366641,259.633399 788.5,246.5 C793.633359,233.366601 800.899953,222.200046 810.3,213 C819.700047,203.799954 830.899935,196.733358 843.9,191.8 C856.900065,186.866642 871.333254,184.4 887.2,184.4 Z M887.2,352.2 C901.466738,352.2 911.966633,347.166717 918.7,337.1 C925.433367,327.033283 928.8,311.733436 928.8,291.2 C928.8,270.666564 925.433367,255.40005 918.7,245.4 C911.966633,235.39995 901.466738,230.4 887.2,230.4 C872.53326,230.4 861.800034,235.39995 855,245.4 C848.199966,255.40005 844.8,270.666564 844.8,291.2 C844.8,311.733436 848.199966,327.033283 855,337.1 C861.800034,347.166717 872.53326,352.2 887.2,352.2 Z M1010.8,395 L1010.8,187.6 L1049.2,187.6 C1053.06669,187.6 1056.29999,188.466658 1058.9,190.2 C1061.50001,191.933342 1063.33333,194.533316 1064.4,198 L1068,210 C1072.00002,206.266648 1076.13331,202.800016 1080.4,199.6 C1084.66669,196.399984 1089.23331,193.700011 1094.1,191.5 C1098.96669,189.299989 1104.2333,187.566673 1109.9,186.3 C1115.56669,185.033327 1121.7333,184.4 1128.4,184.4 C1139.73339,184.4 1149.76662,186.366647 1158.5,190.3 C1167.23338,194.233353 1174.59997,199.699965 1180.6,206.7 C1186.60003,213.700035 1191.13332,222.033285 1194.2,231.7 C1197.26668,241.366715 1198.8,251.86661 1198.8,263.2 L1198.8,395 L1136.8,395 L1136.8,263.2 C1136.8,253.066616 1134.46669,245.166695 1129.8,239.5 C1125.13331,233.833305 1118.26671,231 1109.2,231 C1102.39997,231 1096.00003,232.466652 1090,235.4 C1083.99997,238.333348 1078.26669,242.266642 1072.8,247.2 L1072.8,395 L1010.8,395 Z M1254.4,84.8 C1259.73336,93.200042 1263.69999,101.599958 1266.3,110 C1268.90001,118.400042 1270.2,126.733292 1270.2,135 C1270.2,149.266738 1266.4667,162.933268 1259,176 C1251.5333,189.066732 1240.53341,201.133278 1226,212.2 L1206.4,200.6 C1204.8,199.533328 1203.63334,198.366673 1202.9,197.1 C1202.16666,195.833327 1201.8,194.53334 1201.8,193.2 C1201.8,191.733326 1202.13333,190.33334 1202.8,189 C1203.46667,187.66666 1204.26666,186.533338 1205.2,185.6 C1206.66667,183.999992 1208.3,182.033345 1210.1,179.7 C1211.90001,177.366655 1213.59999,174.666682 1215.2,171.6 C1216.8,168.533318 1218.16666,165.066686 1219.3,161.2 C1220.43334,157.333314 1221,153.200022 1221,148.8 C1221,143.999976 1220.16667,138.866694 1218.5,133.4 C1216.89999,128.151974 1214.28626,122.535387 1210.65872,116.550083 L1210.2,115.8 C1208.86666,113.666656 1208.2,111.533344 1208.2,109.4 C1208.2,106.999988 1208.99999,104.866676 1210.6,103 C1212.20001,101.133324 1214.39999,99.666672 1217.2,98.6 L1254.4,84.8 Z M1362,398.2 C1352.13328,398.2 1343.43337,396.766681 1335.9,393.9 C1328.36663,391.033319 1322.03336,386.966693 1316.9,381.7 C1311.76664,376.433307 1307.86668,370.066704 1305.2,362.6 C1302.53332,355.133296 1301.2,346.800046 1301.2,337.6 L1301.2,230.4 L1283.6,230.4 C1280.39998,230.4 1277.66668,229.366677 1275.4,227.3 C1273.13332,225.233323 1272,222.20002 1272,218.2 L1272,194 L1305,187.6 L1317.2,137 C1318.80001,130.599968 1323.3333,127.4 1330.8,127.4 L1363.2,127.4 L1363.2,188 L1413.6,188 L1413.6,230.4 L1363.2,230.4 L1363.2,333.4 C1363.2,338.200024 1364.36665,342.166651 1366.7,345.3 C1369.03334,348.433349 1372.39998,350 1376.8,350 C1379.06668,350 1380.96666,349.766669 1382.5,349.3 C1384.03334,348.833331 1385.36666,348.300003 1386.5,347.7 C1387.63334,347.099997 1388.69999,346.566669 1389.7,346.1 C1390.7,345.633331 1391.86666,345.4 1393.2,345.4 C1395.06668,345.4 1396.56666,345.833329 1397.7,346.7 C1398.83334,347.566671 1400,348.933324 1401.2,350.8 L1420,380.2 C1411.99996,386.20003 1403.00005,390.699985 1393,393.7 C1382.99995,396.700015 1372.66672,398.2 1362,398.2 Z M1507.4,395 L1507.4,245.3 L1538.4,245.3 L1538.4,302.3 C1542.26669,298.499981 1546.64998,295.450011 1551.55,293.15 C1556.45002,290.849988 1562.19997,289.7 1568.8,289.7 C1574.20003,289.7 1579.19998,290.866655 1583.8,293.2 C1588.40002,295.533345 1592.36665,298.949977 1595.7,303.45 C1599.03335,307.950022 1601.64999,313.466634 1603.55,320 C1605.45001,326.533366 1606.4,333.966625 1606.4,342.3 C1606.4,350.100039 1605.31668,357.299967 1603.15,363.9 C1600.98332,370.500033 1597.95002,376.233309 1594.05,381.1 C1590.14998,385.966691 1585.48336,389.766653 1580.05,392.5 C1574.61664,395.233347 1568.60003,396.6 1562,396.6 C1558.93332,396.6 1556.18335,396.3 1553.75,395.7 C1551.31665,395.099997 1549.08334,394.250005 1547.05,393.15 C1545.01666,392.049995 1543.15001,390.733341 1541.45,389.2 C1539.74999,387.666659 1538.10001,386.000009 1536.5,384.2 L1535.4,389.4 C1534.93333,391.533344 1534.08334,392.999996 1532.85,393.8 C1531.61666,394.600004 1530.00001,395 1528,395 L1507.4,395 Z M1558,313 C1555.73332,313 1553.68334,313.216664 1551.85,313.65 C1550.01666,314.083335 1548.31667,314.699996 1546.75,315.5 C1545.18333,316.300004 1543.73334,317.316661 1542.4,318.55 C1541.06666,319.78334 1539.73334,321.199992 1538.4,322.8 L1538.4,366.8 C1540.73335,369.400013 1543.26665,371.216661 1546,372.25 C1548.73335,373.283339 1551.59998,373.8 1554.6,373.8 C1557.46668,373.8 1560.09999,373.233339 1562.5,372.1 C1564.90001,370.966661 1566.98332,369.150013 1568.75,366.65 C1570.51668,364.149987 1571.9,360.90002 1572.9,356.9 C1573.9,352.89998 1574.4,348.033362 1574.4,342.3 C1574.4,336.833306 1574,332.233352 1573.2,328.5 C1572.4,324.766648 1571.28334,321.750011 1569.85,319.45 C1568.41666,317.149988 1566.70001,315.5 1564.7,314.5 C1562.69999,313.5 1560.46668,313 1558,313 Z M1665.3,289.7 C1672.1667,289.7 1678.44997,290.766656 1684.15,292.9 C1689.85003,295.033344 1694.74998,298.133313 1698.85,302.2 C1702.95002,306.266687 1706.14999,311.249971 1708.45,317.15 C1710.75001,323.050029 1711.9,329.733296 1711.9,337.2 C1711.9,339.533345 1711.8,341.433326 1711.6,342.9 C1711.4,344.366674 1711.03334,345.533329 1710.5,346.4 C1709.96666,347.266671 1709.25,347.866665 1708.35,348.2 C1707.45,348.533335 1706.30001,348.7 1704.9,348.7 L1645.1,348.7 C1646.1,357.36671 1648.73331,363.64998 1653,367.55 C1657.26669,371.450019 1662.76663,373.4 1669.5,373.4 C1673.10002,373.4 1676.19999,372.966671 1678.8,372.1 C1681.40001,371.233329 1683.71666,370.266672 1685.75,369.2 L1687.24375,368.418748 C1688.70625,367.656249 1690.07499,366.950003 1691.35,366.3 C1693.05001,365.433329 1694.83332,365 1696.7,365 C1699.16668,365 1701.03333,365.899991 1702.3,367.7 L1711.3,378.8 C1708.09998,382.466685 1704.65002,385.449989 1700.95,387.75 C1697.24998,390.050011 1693.45002,391.849993 1689.55,393.15 C1685.64998,394.450006 1681.75002,395.349997 1677.85,395.85 C1673.94998,396.350002 1670.23335,396.6 1666.7,396.6 C1659.4333,396.6 1652.6167,395.416678 1646.25,393.05 C1639.8833,390.683322 1634.31669,387.16669 1629.55,382.5 C1624.78331,377.83331 1621.01668,372.033368 1618.25,365.1 C1615.48332,358.166632 1614.1,350.100046 1614.1,340.9 C1614.1,333.966632 1615.28332,327.400031 1617.65,321.2 C1620.01668,314.999969 1623.41664,309.56669 1627.85,304.9 C1632.28336,300.23331 1637.64997,296.533347 1643.95,293.8 C1650.25003,291.066653 1657.36663,289.7 1665.3,289.7 Z M1665.9,311.1 C1659.96664,311.1 1655.33335,312.783316 1652,316.15 C1648.66665,319.516683 1646.46667,324.366635 1645.4,330.7 L1684.1,330.7 C1684.1,328.233321 1683.78334,325.833345 1683.15,323.5 C1682.51666,321.166655 1681.48334,319.083343 1680.05,317.25 C1678.61666,315.416657 1676.73335,313.933339 1674.4,312.8 C1672.06666,311.666661 1669.23335,311.1 1665.9,311.1 Z M1979.3,162.8 C1977.29999,166.000016 1975.20001,168.4 1973,170 C1970.79999,171.600008 1967.96668,172.4 1964.5,172.4 C1961.43332,172.4 1958.13335,171.433343 1954.6,169.5 L1950.91111,167.488887 C1948.34815,166.096297 1945.57779,164.600008 1942.6,163 C1938.13331,160.599988 1933.03336,158.433343 1927.3,156.5 C1921.56664,154.566657 1915.03337,153.6 1907.7,153.6 C1895.03327,153.6 1885.60003,156.299973 1879.4,161.7 C1873.19997,167.100027 1870.1,174.399954 1870.1,183.6 C1870.1,189.466696 1871.96665,194.333314 1875.7,198.2 C1879.43335,202.066686 1884.3333,205.399986 1890.4,208.2 C1896.17781,210.86668 1902.74162,213.321684 1910.09161,215.565078 L1911.2,215.9 C1919.00004,218.233345 1926.96663,220.833319 1935.1,223.7 C1943.23337,226.566681 1951.19996,229.933314 1959,233.8 C1966.80004,237.666686 1973.7333,242.59997 1979.8,248.6 C1985.8667,254.60003 1990.76665,261.899957 1994.5,270.5 C1998.23335,279.100043 2000.1,289.466606 2000.1,301.6 C2000.1,315.066734 1997.76669,327.666608 1993.1,339.4 C1988.43331,351.133392 1981.66671,361.366623 1972.8,370.1 C1963.93329,378.833377 1953.00006,385.699975 1940,390.7 C1926.99994,395.700025 1912.23342,398.2 1895.7,398.2 C1886.63329,398.2 1877.40005,397.266676 1868,395.4 C1858.59995,393.533324 1849.50004,390.900017 1840.7,387.5 C1831.89996,384.099983 1823.63337,380.06669 1815.9,375.4 C1808.16663,370.73331 1801.43336,365.533362 1795.7,359.8 L1815.7,328.2 C1817.16667,325.799988 1819.23332,323.866674 1821.9,322.4 C1824.56668,320.933326 1827.43332,320.2 1830.5,320.2 C1834.50002,320.2 1838.53331,321.466654 1842.6,324 L1844.94376,325.453128 C1848.41042,327.592712 1852.22915,329.908321 1856.4,332.4 C1861.53336,335.466682 1867.4333,338.266654 1874.1,340.8 C1880.7667,343.333346 1888.63329,344.6 1897.7,344.6 C1909.96673,344.6 1919.49997,341.900027 1926.3,336.5 C1933.10003,331.099973 1936.5,322.533392 1936.5,310.8 C1936.5,303.999966 1934.63335,298.466688 1930.9,294.2 C1927.16665,289.933312 1922.2667,286.400014 1916.2,283.6 C1910.42219,280.93332 1903.88862,278.569018 1896.5991,276.507031 L1895.5,276.2 C1887.76663,274.066656 1879.83337,271.700013 1871.7,269.1 C1863.56663,266.499987 1855.63337,263.300019 1847.9,259.5 C1840.16663,255.699981 1833.2667,250.700031 1827.2,244.5 C1821.1333,238.299969 1816.23335,230.566713 1812.5,221.3 C1808.76665,212.033287 1806.9,200.600068 1806.9,187 C1806.9,176.066612 1809.09998,165.400052 1813.5,155 C1817.90002,144.599948 1824.36662,135.333374 1832.9,127.2 C1841.43338,119.066626 1851.89994,112.566691 1864.3,107.7 C1876.70006,102.833309 1890.89992,100.4 1906.9,100.4 C1915.83338,100.4 1924.53329,101.099993 1933,102.5 C1941.46671,103.9 1949.49996,105.966653 1957.1,108.7 C1964.70004,111.433347 1971.79997,114.699981 1978.4,118.5 C1985.00003,122.300019 1990.89997,126.599976 1996.1,131.4 L1979.3,162.8 Z M2081.7,187.6 L2081.7,395 L2019.7,395 L2019.7,187.6 L2081.7,187.6 Z M2088.9,130.8 C2088.9,135.733358 2087.90001,140.366645 2085.9,144.7 C2083.89999,149.033355 2081.16668,152.833317 2077.7,156.1 C2074.23332,159.366683 2070.20002,161.966657 2065.6,163.9 C2060.99998,165.833343 2056.10003,166.8 2050.9,166.8 C2045.83331,166.8 2041.10002,165.833343 2036.7,163.9 C2032.29998,161.966657 2028.40002,159.366683 2025,156.1 C2021.59998,152.833317 2018.93334,149.033355 2017,144.7 C2015.06666,140.366645 2014.1,135.733358 2014.1,130.8 C2014.1,125.733308 2015.06666,121.000022 2017,116.6 C2018.93334,112.199978 2021.59998,108.33335 2025,105 C2028.40002,101.66665 2032.29998,99.066676 2036.7,97.2 C2041.10002,95.333324 2045.83331,94.4 2050.9,94.4 C2056.10003,94.4 2060.99998,95.333324 2065.6,97.2 C2070.20002,99.066676 2074.23332,101.66665 2077.7,105 C2081.16668,108.33335 2083.89999,112.199978 2085.9,116.6 C2087.90001,121.000022 2088.9,125.733308 2088.9,130.8 Z M2179.7,95.6 L2179.7,395 L2117.7,395 L2117.7,95.6 L2179.7,95.6 Z M2302.5,184.4 C2316.2334,184.4 2328.79994,186.533312 2340.2,190.8 C2351.60006,195.066688 2361.39996,201.266626 2369.6,209.4 C2377.80004,217.533374 2384.19998,227.499941 2388.8,239.3 C2393.40002,251.100059 2395.7,264.466592 2395.7,279.4 L2395.69456,280.709756 C2395.66009,284.782632 2395.46191,288.146018 2395.1,290.8 C2394.7,293.733348 2393.96667,296.066658 2392.9,297.8 C2391.83333,299.533342 2390.40001,300.73333 2388.6,301.4 C2386.79999,302.06667 2384.50001,302.4 2381.7,302.4 L2262.1,302.4 C2264.1,319.73342 2269.36662,332.299961 2277.9,340.1 C2286.43338,347.900039 2297.43327,351.8 2310.9,351.8 C2318.10004,351.8 2324.29997,350.933342 2329.5,349.2 C2334.70003,347.466658 2339.33331,345.533344 2343.4,343.4 L2347.05918,341.487571 C2349.73255,340.095857 2352.24614,338.800006 2354.6,337.6 C2358.00002,335.866658 2361.56665,335 2365.3,335 C2370.23336,335 2373.96665,336.799982 2376.5,340.4 L2394.5,362.6 C2388.09997,369.93337 2381.20004,375.899977 2373.8,380.5 C2366.39996,385.100023 2358.80004,388.699987 2351,391.3 C2343.19996,393.900013 2335.40004,395.699995 2327.6,396.7 C2319.79996,397.700005 2312.3667,398.2 2305.3,398.2 C2290.76659,398.2 2277.1334,395.833357 2264.4,391.1 C2251.6666,386.366643 2240.53338,379.33338 2231,370 C2221.46662,360.66662 2213.93336,349.066736 2208.4,335.2 C2202.86664,321.333264 2200.1,305.200092 2200.1,286.8 C2200.1,272.933264 2202.46664,259.800062 2207.2,247.4 C2211.93336,234.999938 2218.73329,224.13338 2227.6,214.8 C2236.46671,205.46662 2247.19994,198.066694 2259.8,192.6 C2272.40006,187.133306 2286.63325,184.4 2302.5,184.4 Z M2303.7,227.2 C2291.83327,227.2 2282.5667,230.566633 2275.9,237.3 C2269.2333,244.033367 2264.83334,253.73327 2262.7,266.4 L2340.1,266.4 C2340.1,261.466642 2339.46667,256.66669 2338.2,252 C2336.93333,247.33331 2334.86668,243.166685 2332,239.5 C2329.13332,235.833315 2325.36669,232.866678 2320.7,230.6 C2316.03331,228.333322 2310.3667,227.2 2303.7,227.2 Z M2415.3,395 L2415.3,187.6 L2453.7,187.6 C2457.56669,187.6 2460.79999,188.466658 2463.4,190.2 C2466.00001,191.933342 2467.83333,194.533316 2468.9,198 L2472.5,210 C2476.50002,206.266648 2480.63331,202.800016 2484.9,199.6 C2489.16669,196.399984 2493.73331,193.700011 2498.6,191.5 C2503.46669,189.299989 2508.73331,187.566673 2514.4,186.3 C2520.06669,185.033327 2526.2333,184.4 2532.9,184.4 C2544.23339,184.4 2554.26662,186.366647 2563,190.3 C2571.73338,194.233353 2579.09997,199.699965 2585.1,206.7 C2591.10003,213.700035 2595.63332,222.033285 2598.7,231.7 C2601.76668,241.366715 2603.3,251.86661 2603.3,263.2 L2603.3,395 L2541.3,395 L2541.3,263.2 C2541.3,253.066616 2538.96669,245.166695 2534.3,239.5 C2529.63331,233.833305 2522.76671,231 2513.7,231 C2506.89997,231 2500.50003,232.466652 2494.5,235.4 C2488.49997,238.333348 2482.76669,242.266642 2477.3,247.2 L2477.3,395 L2415.3,395 Z M2704.1,398.2 C2694.23328,398.2 2685.53337,396.766681 2678,393.9 C2670.46663,391.033319 2664.13336,386.966693 2659,381.7 C2653.86664,376.433307 2649.96668,370.066704 2647.3,362.6 C2644.63332,355.133296 2643.3,346.800046 2643.3,337.6 L2643.3,230.4 L2625.7,230.4 C2622.49998,230.4 2619.76668,229.366677 2617.5,227.3 C2615.23332,225.233323 2614.1,222.20002 2614.1,218.2 L2614.1,194 L2647.1,187.6 L2659.3,137 C2660.90001,130.599968 2665.4333,127.4 2672.9,127.4 L2705.3,127.4 L2705.3,188 L2755.7,188 L2755.7,230.4 L2705.3,230.4 L2705.3,333.4 C2705.3,338.200024 2706.46666,342.166651 2708.8,345.3 C2711.13335,348.433349 2714.49998,350 2718.9,350 C2721.16668,350 2723.06666,349.766669 2724.6,349.3 C2726.13334,348.833331 2727.46666,348.300003 2728.6,347.7 C2729.73334,347.099997 2730.8,346.566669 2731.8,346.1 C2732.80001,345.633331 2733.96666,345.4 2735.3,345.4 C2737.16668,345.4 2738.66666,345.833329 2739.8,346.7 C2740.93334,347.566671 2742.1,348.933324 2743.3,350.8 L2762.1,380.2 C2754.09996,386.20003 2745.10005,390.699985 2735.1,393.7 C2725.09995,396.700015 2714.76672,398.2 2704.1,398.2 Z" id="Don’tbeSilent"></path>
            <g id="purple-ribbon" transform="translate(0.000000, 31.000000)">
                <path d="M262.845356,92.0801935 C262.845356,144.673769 250.730156,139.018291 4.12433865,371.904886 C0.209765897,375.604756 -1.06063036,381.320744 0.929073021,386.330783 C2.91877641,391.340823 7.75591969,394.629401 13.1467805,394.629401 L52.5728714,394.629401 L52.5728714,435.846249 C52.5728714,441.036065 55.6148133,445.737416 60.3503249,447.857014 C65.0551717,449.965212 70.6098699,449.116321 74.4806359,445.64709 C285.100946,257.186996 328.075385,221.587039 339.464269,165.14802 C356.895858,77.1026923 281.746224,0 197.135205,0 L170.851144,0 C221.657357,0 262.845356,41.2256181 262.845356,92.0801935 Z" id="Path"></path>
                <path d="M237,92.1915584 C237,55.6952982 207.614953,26 171.5,26 C135.385047,26 106,55.6952982 106,92.1915584 C106,97.4762924 106.019213,101.784039 106.777267,106 C123.35488,89.2879553 146.229227,78.9532467 171.5,78.9532467 C196.762913,78.9532467 219.630273,89.2791298 236.20876,105.984114 C236.980787,101.761975 237,97.4630541 237,92.1915584 Z" id="Path"></path>
                <path d="M3.5341239,164.926887 C9.81567445,196.158802 24.007358,218.766985 75.7462362,269 C95.0913195,250.990848 144.412607,205.304334 151.811846,198.428113 C85.1088415,136.02732 79.4576256,125.652577 79.4576256,91.9280979 C79.4576256,41.1575227 120.442454,0 171,0 L145.164126,0 C61.6809683,0 -13.9347766,76.2924417 3.5341239,164.926887 Z" id="Path"></path>
                <path d="M341.072668,386.040034 C343.059024,381.006803 341.78989,375.264357 337.882777,371.547361 C311.615818,346.584722 288.513385,324.858927 267.297596,305 C246.652086,324.49683 221.401484,347.489523 191,374.899617 C213.687844,395.333846 239.011043,419.848049 267.645711,445.631792 C271.509965,449.116201 277.054445,449.969903 281.752251,447.851946 C286.479797,445.722537 289.196495,440.999423 289.196495,435.785584 L289.196495,394.377946 L328.876388,394.377946 C334.256431,394.377065 339.087186,391.073264 341.072668,386.040034 Z" id="Path"></path>
            </g>
        </g>
    </g>
</svg>